<svg id="Layer_1" data-name="Layer 1" xmlns="http://www.w3.org/2000/svg" viewBox="0 0 44.31 48.71"><defs><style>.cls-1{fill:#427431;}</style></defs><path class="cls-1" d="M44.7,35.47A72.28,72.28,0,0,1,9.9,56.35C9.56,54.29,11,53.74,12,53.05c1.64-1.1,3.46-1.81,3.09-4.45-.24-1.78,1.65-1.78,2.8-2.25,7.18-2.92,13.86-6.65,19.42-12.13.91-.9,2.37-1.63,1.87-3.23S37,29.68,35.86,29.46c-3-.57-6-1.05-6.77-4.53s1.28-5.79,3.63-7.89a44.38,44.38,0,0,1,16.21-9c2-.65,4.31-.86,5,1.53s-1,3.92-3.34,4.44A25.33,25.33,0,0,0,41,18.64c-1.13.83-2.81,1.59-2.39,3.32S41,23.4,42.33,23.47c3.33.19,6,1.1,6.62,4.93C48.94,31.6,47.23,33.78,44.7,35.47Z" transform="translate(-9.85 -7.65)"/></svg>